<?xml version="1.0" encoding="UTF-8" standalone="no"?>
<!-- Created with Inkscape (http://www.inkscape.org/) -->

<svg
   xmlns:dc="http://purl.org/dc/elements/1.1/"
   xmlns:cc="http://creativecommons.org/ns#"
   xmlns:rdf="http://www.w3.org/1999/02/22-rdf-syntax-ns#"
   xmlns:svg="http://www.w3.org/2000/svg"
   xmlns="http://www.w3.org/2000/svg"
   xmlns:sodipodi="http://sodipodi.sourceforge.net/DTD/sodipodi-0.dtd"
   xmlns:inkscape="http://www.inkscape.org/namespaces/inkscape"
   width="96"
   height="96"
   id="svg3049"
   version="1.1"
   inkscape:version="0.48.4 r9939"
   sodipodi:docname="icon.svg"
   inkscape:export-filename="/home/neil/c/catverbs/res/drawable-ldpi/ic_launcher.png"
   inkscape:export-xdpi="33.75"
   inkscape:export-ydpi="33.75">
  <defs
     id="defs3051" />
  <sodipodi:namedview
     id="base"
     pagecolor="#ffffff"
     bordercolor="#666666"
     borderopacity="1.0"
     inkscape:pageopacity="0.0"
     inkscape:pageshadow="2"
     inkscape:zoom="3.7049449"
     inkscape:cx="0.091055474"
     inkscape:cy="37.96567"
     inkscape:document-units="px"
     inkscape:current-layer="layer1"
     showgrid="false"
     inkscape:window-width="1366"
     inkscape:window-height="702"
     inkscape:window-x="0"
     inkscape:window-y="27"
     inkscape:window-maximized="1" />
  <metadata
     id="metadata3054">
    <rdf:RDF>
      <cc:Work
         rdf:about="">
        <dc:format>image/svg+xml</dc:format>
        <dc:type
           rdf:resource="http://purl.org/dc/dcmitype/StillImage" />
        <dc:title></dc:title>
      </cc:Work>
    </rdf:RDF>
  </metadata>
  <g
     inkscape:label="Layer 1"
     inkscape:groupmode="layer"
     id="layer1"
     transform="translate(0,-956.36218)">
    <path
       style="fill:#fcdd09;fill-opacity:1;stroke:none"
       d="m 4.5150258,976.00103 c 17.6540752,13.26442 19.3210122,-12.50376 44.2783282,0.64414 24.691953,13.00811 22.043735,-10.37774 43.133199,-0.0716 l -0.190855,60.11933 c -21.5666,-8.5885 -21.280316,10.6879 -43.610336,0 -23.061917,-11.0382 -27.387673,12.5964 -43.6103362,0 z"
       id="rect3125"
       inkscape:connector-curvature="0"
       sodipodi:nodetypes="csccscc" />
    <path
       style="fill:#da121a;fill-opacity:1;stroke:none"
       d="m 4.3241709,984.97122 c 17.6540751,13.26448 19.3210121,-12.50383 44.2783281,0.6441 24.691953,13.00818 22.043735,-10.37773 43.133199,-0.072 l -0.190855,6.1075 c -21.5666,-8.58857 -21.280316,10.68788 -43.610336,0 -23.061917,-11.03827 -27.387673,12.59638 -43.6103361,0 z"
       id="path3134"
       inkscape:connector-curvature="0"
       sodipodi:nodetypes="csccscc" />
    <path
       sodipodi:nodetypes="csccscc"
       inkscape:connector-curvature="0"
       id="path3138"
       d="m 4.3241709,997.5676 c 17.6540751,13.2645 19.3210121,-12.50379 44.2783281,0.6441 24.691953,13.0082 22.043735,-10.37769 43.133199,-0.072 l -0.190855,6.1075 c -21.5666,-8.5886 -21.280316,10.6879 -43.610336,0 -23.061917,-11.03827 -27.387673,12.5964 -43.6103361,0 z"
       style="fill:#da121a;fill-opacity:1;stroke:none" />
    <path
       sodipodi:nodetypes="csccscc"
       inkscape:connector-curvature="0"
       id="path3140"
       d="m 4.3241709,1010.3549 c 17.6540751,13.2645 19.3210121,-12.5038 44.2783281,0.6441 24.691953,13.0082 22.043735,-10.3777 43.133199,-0.072 l -0.190855,6.1075 c -21.5666,-8.5886 -21.280316,10.6879 -43.610336,0 -23.061917,-11.0383 -27.387673,12.5964 -43.6103361,0 z"
       style="fill:#da121a;fill-opacity:1;stroke:none" />
    <path
       style="fill:#da121a;fill-opacity:1;stroke:none"
       d="m 4.3241709,1022.1879 c 17.6540751,13.2645 19.3210121,-12.5038 44.2783281,0.6441 24.691953,13.0082 22.043735,-10.3777 43.133199,-0.072 l -0.190855,6.1075 c -21.5666,-8.5886 -21.280316,10.6879 -43.610336,0 -23.061917,-11.0383 -27.387673,12.5964 -43.6103361,0 z"
       id="path3142"
       inkscape:connector-curvature="0"
       sodipodi:nodetypes="csccscc" />
    <path
       sodipodi:nodetypes="csccscc"
       inkscape:connector-curvature="0"
       id="path3144"
       d="m 4.5150258,976.00103 c 17.6540752,13.26442 19.3210122,-12.50376 44.2783282,0.64414 24.691953,13.00811 22.043735,-10.37774 43.133199,-0.0716 l -0.190855,60.11933 c -21.5666,-8.5885 -21.280316,10.6879 -43.610336,0 -23.061917,-11.0382 -27.387673,12.5964 -43.6103362,0 z"
       style="fill:none;stroke:#000000;stroke-width:3;stroke-miterlimit:4;stroke-dasharray:none" />
  </g>
</svg>
